<svg viewBox="0 0 34 34" xmlns="http://www.w3.org/2000/svg" xmlns:xlink="http://www.w3.org/1999/xlink" width="34.000000" height="34.000000" fill="none">
	<rect id="gg:smart-home-boiler" width="34.000000" height="34.000000" x="0.000000" y="0.000000" fill="rgb(255,255,255)" fill-opacity="0" />
	<path id="Vector" d="M7 10.0909C7 8.74072 7.54183 7.44582 8.50631 6.49109C9.47078 5.53636 10.7789 5 12.1429 5L19.8571 5C21.2211 5 22.5292 5.53636 23.4937 6.49109C24.4582 7.44582 25 8.74072 25 10.0909L25 30.4545L20.0423 30.4545L20.9963 33L18.4249 33L17.4709 30.4545L14.8994 30.4545L15.8534 33L13.282 33L12.328 30.4545L7 30.4545L7 10.0909ZM12.1429 7.54545L19.8571 7.54545C20.5391 7.54545 21.1932 7.81364 21.6754 8.291C22.1577 8.76837 22.4286 9.41581 22.4286 10.0909L22.4286 12.6364L9.57143 12.6364L9.57143 10.0909C9.57143 9.41581 9.84235 8.76837 10.3246 8.291C10.8068 7.81364 11.4609 7.54545 12.1429 7.54545ZM9.57143 15.1818L22.4286 15.1818L22.4286 27.9091L9.57143 27.9091L9.57143 15.1818Z" fill="rgb(0,0,0)" fill-rule="evenodd" />
</svg>
