<svg viewBox="0 0 32 32" xmlns="http://www.w3.org/2000/svg" xmlns:xlink="http://www.w3.org/1999/xlink" width="32.000000" height="32.000000" fill="none">
	<rect id="la:bed" width="32.000000" height="32.000000" x="0.000000" y="0.000000" fill="rgb(255,255,255)" fill-opacity="0" />
	<path id="Vector" d="M6 6C4.355 6 3 7.355 3 9L3 15.781C2.39 16.332 2 17.121 2 18L2 27L7 27L7 25L25 25L25 27L30 27L30 18C30 17.121 29.61 16.332 29 15.781L29 9C29 7.355 27.645 6 26 6L6 6ZM6 8L26 8C26.555 8 27 8.445 27 9L27 15L25 15L25 14C25 12.355 23.645 11 22 11L18 11C17.234 11 16.531 11.3 16 11.781C15.4535 11.2812 14.7406 11.0028 14 11L10 11C8.355 11 7 12.355 7 14L7 15L5 15L5 9C5 8.445 5.445 8 6 8ZM10 13L14 13C14.555 13 15 13.445 15 14L15 15L9 15L9 14C9 13.445 9.445 13 10 13ZM18 13L22 13C22.555 13 23 13.445 23 14L23 15L17 15L17 14C17 13.445 17.445 13 18 13ZM5 17L27 17C27.555 17 28 17.445 28 18L28 25L27 25L27 23L5 23L5 25L4 25L4 18C4 17.445 4.445 17 5 17Z" fill="rgb(46.5865,46.5865,46.5865)" fill-rule="nonzero" />
</svg>
