<svg viewBox="0 0 34 34" xmlns="http://www.w3.org/2000/svg" xmlns:xlink="http://www.w3.org/1999/xlink" width="34.000000" height="34.000000" fill="none">
	<rect id="ph:garage-thin" width="34.000000" height="34.000000" x="0.000000" y="0.000000" fill="rgb(255,255,255)" fill-opacity="0" />
	<path id="Vector" d="M31.875 26.0313L30.2812 26.0313L30.2812 13.1047C30.2816 12.842 30.2171 12.5833 30.0934 12.3516C29.9696 12.1199 29.7905 11.9223 29.572 11.7765L17.8845 3.98442C17.6226 3.80968 17.3148 3.71643 17 3.71643C16.6852 3.71643 16.3774 3.80968 16.1155 3.98442L4.42797 11.7765C4.20946 11.9223 4.03037 12.1199 3.90664 12.3516C3.7829 12.5833 3.71836 12.842 3.71875 13.1047L3.71875 26.0313L2.125 26.0313C1.9841 26.0313 1.84898 26.0873 1.74935 26.1869C1.64972 26.2865 1.59375 26.4216 1.59375 26.5625C1.59375 26.7034 1.64972 26.8386 1.74935 26.9382C1.84898 27.0378 1.9841 27.0938 2.125 27.0938L31.875 27.0938C32.0159 27.0938 32.151 27.0378 32.2506 26.9382C32.3503 26.8386 32.4062 26.7034 32.4062 26.5625C32.4062 26.4216 32.3503 26.2865 32.2506 26.1869C32.151 26.0873 32.0159 26.0313 31.875 26.0313ZM4.78125 13.1047C4.78119 13.0172 4.80274 12.931 4.84398 12.8539C4.88523 12.7767 4.94488 12.7109 5.01766 12.6624L16.7052 4.87161C16.7925 4.81336 16.8951 4.78228 17 4.78228C17.1049 4.78228 17.2075 4.81336 17.2948 4.87161L28.9823 12.6624C29.0551 12.7109 29.1148 12.7767 29.156 12.8539C29.1973 12.931 29.2188 13.0172 29.2188 13.1047L29.2188 26.0313L24.9688 26.0313L24.9688 18.0625C24.9688 17.9216 24.9128 17.7865 24.8132 17.6869C24.7135 17.5873 24.5784 17.5313 24.4375 17.5313L9.5625 17.5313C9.4216 17.5313 9.28648 17.5873 9.18685 17.6869C9.08722 17.7865 9.03125 17.9216 9.03125 18.0625L9.03125 26.0313L4.78125 26.0313L4.78125 13.1047ZM23.9062 18.5938L23.9062 21.7813L17.5312 21.7813L17.5312 18.5938L23.9062 18.5938ZM16.4688 21.7813L10.0938 21.7813L10.0938 18.5938L16.4688 18.5938L16.4688 21.7813ZM10.0938 22.8438L16.4688 22.8438L16.4688 26.0313L10.0938 26.0313L10.0938 22.8438ZM17.5312 22.8438L23.9062 22.8438L23.9062 26.0313L17.5312 26.0313L17.5312 22.8438Z" fill="rgb(0,0,0)" fill-rule="nonzero" />
</svg>
