<svg viewBox="0 0 29 29" xmlns="http://www.w3.org/2000/svg" xmlns:xlink="http://www.w3.org/1999/xlink" width="29.000000" height="29.000000" fill="none">
	<rect id="streamline:closet" width="29.000000" height="29.000000" x="0.000000" y="0.000000" fill="rgb(255,255,255)" fill-opacity="0" />
	<path id="Vector" d="M5.17836 1.03571C4.62899 1.03571 4.10211 1.25394 3.71364 1.64241C3.32517 2.03088 3.10693 2.55776 3.10693 3.10713L3.10693 25.8928C3.10693 26.4422 3.32517 26.9691 3.71364 27.3576C4.10211 27.746 4.62899 27.9643 5.17836 27.9643L23.8212 27.9643C24.3706 27.9643 24.8975 27.746 25.2859 27.3576C25.6744 26.9691 25.8926 26.4422 25.8926 25.8928L25.8926 3.10713C25.8926 2.55776 25.6744 2.03088 25.2859 1.64241C24.8975 1.25394 24.3706 1.03571 23.8212 1.03571L5.17836 1.03571ZM14.4998 1.03571L14.4998 27.9643M19.6784 13.4643L19.6784 15.5357M9.32122 13.4643L9.32122 15.5357" fill-rule="nonzero" stroke="rgb(0,0,0)" stroke-linecap="round" stroke-linejoin="round" stroke-width="1" />
</svg>
